<svg width="18" height="15" viewBox="0 0 18 15" fill="none" xmlns="http://www.w3.org/2000/svg">
<path d="M0.262958 5.13694C0.319298 4.84617 0.352438 4.55256 0.438605 4.26749C0.892635 2.77376 1.91006 1.68196 3.64664 1.2116C5.50253 0.707038 7.11981 1.11468 8.4587 2.32905C8.61778 2.47159 8.75697 2.62837 8.91273 2.78801C9.06518 2.63407 9.20437 2.48014 9.36014 2.33476C10.0992 1.6506 10.9807 1.17454 12.0711 1.05482C13.7546 0.869524 15.1962 1.31137 16.3032 2.42598C17.4101 3.54058 17.7348 4.85758 17.4797 6.2886C17.3173 7.19511 16.8367 7.98473 16.207 8.71165C15.3818 9.66662 14.3744 10.4705 13.337 11.2487C12.1141 12.1638 10.8813 13.0731 9.65178 13.9825C9.17786 14.3331 8.67081 14.3474 8.21678 14.011C6.61276 12.8137 5.00542 11.6222 3.42129 10.4049C2.61596 9.78919 1.8968 9.09934 1.30358 8.31826C0.746815 7.57994 0.372323 6.78461 0.286157 5.90091C0.282843 5.8667 0.269586 5.83535 0.259644 5.80399C0.262958 5.58164 0.262958 5.35929 0.262958 5.13694ZM8.90942 13.3753C8.9525 13.3468 8.98896 13.324 9.0221 13.2983C10.3908 12.2807 11.7662 11.2715 13.1216 10.2453C14.0695 9.52693 14.9709 8.76581 15.6702 7.8536C16.3396 6.98416 16.6677 6.03774 16.5153 4.98871C16.3496 3.857 15.7862 2.91914 14.6196 2.32905C13.5326 1.77888 12.3826 1.71046 11.2293 2.18937C10.5466 2.47159 10.0428 2.93054 9.61863 3.46361C9.55898 3.54058 9.50264 3.6204 9.43967 3.69451C9.16129 4.02234 8.66418 4.01949 8.38248 3.69736C8.13724 3.41515 7.91188 3.11583 7.63018 2.85927C6.72543 2.03544 5.60527 1.71617 4.31609 1.95562C2.92417 2.21503 2.00948 2.9733 1.54882 4.11356C1.01194 5.43911 1.26713 6.68769 2.1553 7.85075C2.70544 8.57197 3.38152 9.20481 4.12387 9.77779C5.35009 10.7271 6.60281 11.6535 7.84228 12.5857C8.19689 12.8508 8.5515 13.1102 8.90942 13.3753Z" fill="black" stroke="black" stroke-width="0.5" stroke-miterlimit="10"/>
</svg>
