<svg width="15" height="15" viewBox="0 0 15 15" fill="none" xmlns="http://www.w3.org/2000/svg">
<path d="M10.6046 7.38254C11.5223 7.83139 12.224 8.4474 12.7567 9.212C13.3253 10.0323 13.6672 10.9238 13.8219 11.8618C13.9227 12.4747 13.9551 13.0969 13.9983 13.716C14.0234 14.0658 13.7895 14.2546 13.3793 14.2546C9.3918 14.2546 5.40434 14.2546 1.41688 14.2546C0.999418 14.2546 0.779892 14.0689 0.783491 13.7067C0.794287 12.4592 0.977826 11.2396 1.52844 10.0757C2.06106 8.95197 2.87799 8.0326 4.11597 7.4135C4.13396 7.40421 4.15196 7.38873 4.16995 7.37635C2.33817 5.71714 2.74843 3.1819 4.55502 1.88797C6.27165 0.652852 8.7836 0.711667 10.4139 2.03036C12.0801 3.37692 12.3536 5.74191 10.6046 7.38254ZM12.8862 13.3043C12.8178 12.0568 12.5911 10.8526 11.8606 9.75991C11.3711 9.02627 10.6946 8.46288 9.79846 8.09451C9.6905 8.04808 9.61132 8.05117 9.50336 8.1007C8.08904 8.74457 6.67111 8.73529 5.26039 8.09142C5.17042 8.05117 5.09844 8.04189 5.00847 8.08213C4.30671 8.37001 3.7201 8.77863 3.25946 9.31725C2.59008 10.0973 2.2374 10.9857 2.06106 11.933C1.97829 12.3818 1.9351 12.84 1.87033 13.3043C5.55909 13.3043 9.21186 13.3043 12.8862 13.3043ZM10.6946 4.78848C10.6946 3.22214 9.21546 1.94369 7.39447 1.94369C5.57348 1.94369 4.08718 3.21595 4.08718 4.78229C4.08718 6.34863 5.56628 7.62709 7.38727 7.62709C9.20826 7.63018 10.6946 6.35482 10.6946 4.78848Z" fill="black" stroke="black" stroke-width="0.5" stroke-miterlimit="10"/>
</svg>
