<svg width="17" height="15" viewBox="0 0 17 15" fill="none" xmlns="http://www.w3.org/2000/svg">
<path d="M11.5863 10.8762C9.92866 11.982 8.07244 12.3703 6.02844 11.982C4.46112 11.6869 3.19716 10.9601 2.25099 9.84489C0.293659 7.54001 0.669241 4.384 3.12494 2.43324C5.45785 0.578772 9.18473 0.522858 11.6224 2.27171C14.2406 4.15103 14.8112 7.63009 12.4999 10.0934C12.5433 10.1338 12.5902 10.1773 12.6371 10.2176C13.7025 11.134 14.7714 12.0504 15.8332 12.9729C15.9415 13.0661 16.0282 13.1966 16.0643 13.324C16.1293 13.5631 15.9812 13.7837 15.7393 13.8924C15.4901 14.0042 15.2048 13.9701 14.9917 13.793C14.6775 13.529 14.3706 13.2618 14.0636 12.9947C13.2764 12.3206 12.4927 11.6434 11.7054 10.9694C11.6693 10.9383 11.6296 10.9104 11.5863 10.8762ZM7.4838 2.08223C4.63085 2.07601 2.29072 4.07958 2.27628 6.54599C2.26183 9.00929 4.59835 11.0315 7.46574 11.0377C10.3223 11.0439 12.6696 9.04036 12.6841 6.58327C12.6985 4.10754 10.3656 2.08844 7.4838 2.08223Z" fill="black" stroke="black" stroke-width="0.5" stroke-miterlimit="10"/>
</svg>
