<svg width="41" height="40" viewBox="0 0 41 40" fill="none" xmlns="http://www.w3.org/2000/svg">
<path d="M41 20C41 31.0457 31.8218 40 20.5 40C9.17816 40 0 31.0457 0 20C0 8.9543 9.17816 0 20.5 0C31.8218 0 41 8.9543 41 20Z" fill="#1E1E1E"/>
<path d="M7.00536 15.8028C7.09654 15.2544 7.15017 14.7006 7.28961 14.1629C8.02437 11.3455 9.67086 9.28626 12.4812 8.39911C15.4845 7.44743 18.1018 8.2163 20.2685 10.5068C20.5259 10.7756 20.7512 11.0713 21.0032 11.3724C21.2499 11.0821 21.4752 10.7917 21.7273 10.5175C22.9232 9.22712 24.3498 8.32921 26.1143 8.10339C28.8388 7.75391 31.1718 8.58729 32.9631 10.6896C34.7544 12.7919 35.28 15.2759 34.867 17.975C34.6042 19.6848 33.8266 21.1741 32.8076 22.5452C31.4721 24.3464 29.8417 25.8626 28.1631 27.3305C26.1841 29.0564 24.189 30.7716 22.1992 32.4867C21.4323 33.1481 20.6117 33.1749 19.877 32.5405C17.2812 30.2823 14.6801 28.0348 12.1165 25.739C10.8132 24.5776 9.64941 23.2764 8.6894 21.8032C7.78839 20.4107 7.18235 18.9106 7.04291 17.2438C7.03754 17.1793 7.01609 17.1201 7 17.061C7.00536 16.6416 7.00536 16.2222 7.00536 15.8028ZM20.9979 31.3415C21.0676 31.2877 21.1266 31.2447 21.1802 31.1963C23.3952 29.2768 25.6209 27.3735 27.8145 25.4379C29.3483 24.0829 30.8071 22.6474 31.9387 20.9268C33.0221 19.2869 33.553 17.5019 33.3063 15.5232C33.0382 13.3887 32.1264 11.6198 30.2386 10.5068C28.4795 9.46907 26.6185 9.34003 24.7521 10.2433C23.6473 10.7756 22.8321 11.6413 22.1456 12.6467C22.049 12.7919 21.9579 12.9424 21.856 13.0822C21.4055 13.7005 20.601 13.6952 20.1451 13.0876C19.7483 12.5553 19.3836 11.9907 18.9277 11.5068C17.4635 9.95298 15.6508 9.35079 13.5645 9.80243C11.312 10.2917 9.83175 11.7219 9.08627 13.8726C8.21744 16.3728 8.6304 18.7278 10.0677 20.9214C10.958 22.2817 12.0521 23.4754 13.2535 24.5561C15.2378 26.3465 17.2651 28.094 19.2709 29.8521C19.8448 30.3522 20.4186 30.8415 20.9979 31.3415Z" fill="url(#paint0_linear_1_163)"/>
<path d="M20.9979 31.3415C21.0676 31.2877 21.1266 31.2447 21.1802 31.1963C23.3952 29.2768 25.6209 27.3735 27.8145 25.4379C29.3483 24.0829 30.8071 22.6474 31.9387 20.9268C33.0221 19.2869 33.553 17.5019 33.3063 15.5232C33.0382 13.3887 32.1264 11.6198 30.2386 10.5068C28.4795 9.46907 26.6185 9.34003 24.7521 10.2433C23.6473 10.7756 22.8321 11.6413 22.1456 12.6467C22.049 12.7919 21.9579 12.9424 21.856 13.0822C21.4055 13.7005 20.601 13.6952 20.1451 13.0876C19.7483 12.5553 19.3836 11.9907 18.9277 11.5068C17.4635 9.95298 15.6508 9.35079 13.5645 9.80243C11.312 10.2917 9.83175 11.7219 9.08627 13.8726C8.21744 16.3728 8.6304 18.7278 10.0677 20.9214C10.958 22.2817 12.0521 23.4754 13.2535 24.5561C15.2378 26.3465 17.2651 28.094 19.2709 29.8521C19.8448 30.3522 20.4186 30.8415 20.9979 31.3415Z" fill="url(#paint1_linear_1_163)"/>
<defs>
<linearGradient id="paint0_linear_1_163" x1="35" y1="20.963" x2="7" y2="20.963" gradientUnits="userSpaceOnUse">
<stop offset="0.5" stop-color="white"/>
<stop offset="0.5" stop-color="#ABA8A8"/>
</linearGradient>
<linearGradient id="paint1_linear_1_163" x1="35" y1="20.963" x2="7" y2="20.963" gradientUnits="userSpaceOnUse">
<stop offset="0.5" stop-color="white"/>
<stop offset="0.5" stop-color="#ABA8A8"/>
</linearGradient>
</defs>
</svg>
